<?xml version="1.0" standalone="no"?>
<!DOCTYPE svg PUBLIC "-//W3C//DTD SVG 20010904//EN"
 "http://www.w3.org/TR/2001/REC-SVG-20010904/DTD/svg10.dtd">
<svg version="1.0" xmlns="http://www.w3.org/2000/svg"
 width="900.000000pt" height="900.000000pt" viewBox="0 0 900.000000 900.000000"
 preserveAspectRatio="xMidYMid meet">
<metadata>
Created by potrace 1.11, written by Peter Selinger 2001-2013
</metadata>
<g transform="translate(0.000000,900.000000) scale(0.100000,-0.100000)"
fill="#000000" stroke="none">
<path d="M5000 7883 c-267 -15 -640 -60 -875 -104 -316 -60 -742 -181 -889
-254 -187 -92 -303 -272 -337 -520 -17 -133 -6 -422 25 -629 14 -93 26 -172
26 -175 0 -3 4 -12 9 -19 7 -11 39 -2 161 42 552 205 937 307 1302 346 126 13
484 13 585 0 345 -46 513 -154 581 -374 10 -34 15 -89 15 -166 -1 -99 -8 -149
-51 -355 -28 -132 -99 -469 -157 -750 -58 -280 -155 -746 -215 -1035 -60 -289
-154 -743 -210 -1010 -55 -267 -102 -495 -105 -507 -13 -57 -365 -123 -654
-123 -322 0 -545 68 -690 209 -67 65 -106 130 -138 226 -25 73 -27 93 -27 235
1 653 360 1129 1106 1466 68 30 138 67 156 81 95 72 180 253 233 493 25 115
91 531 85 537 -2 2 -66 -5 -142 -17 -1189 -180 -2061 -535 -2610 -1062 -399
-385 -618 -836 -690 -1428 -22 -185 -15 -523 14 -658 113 -515 416 -843 972
-1050 259 -97 547 -154 975 -194 199 -19 865 -15 1110 5 717 61 1306 190 1805
396 187 77 182 73 202 172 16 80 167 806 264 1269 25 118 52 247 59 285 8 39
33 158 55 265 40 191 107 514 215 1035 30 143 75 359 100 480 127 611 146 718
166 980 21 274 -12 589 -86 820 -36 111 -144 326 -207 410 -288 384 -775 613
-1433 675 -99 9 -566 11 -705 3z"/>
</g>
</svg>
